<svg width="43" height="43" viewBox="0 0 43 43" fill="none" xmlns="http://www.w3.org/2000/svg">
<circle cx="21.5" cy="21.5001" r="21.5" fill="#D9D9D9"/>
<path fill-rule="evenodd" clip-rule="evenodd" d="M21.5 6.10352e-05C9.62125 6.10352e-05 0 9.86467 0 22.0439C0 31.7983 6.15437 40.0371 14.7006 42.958C15.7756 43.1508 16.1787 42.4895 16.1787 41.9109C16.1787 41.3873 16.1519 39.6514 16.1519 37.8052C10.75 38.8247 9.3525 36.455 8.9225 35.2151C8.68062 34.5813 7.6325 32.6249 6.71875 32.1014C5.96625 31.688 4.89125 30.6685 6.69188 30.641C8.385 30.6134 9.59438 32.2391 9.9975 32.9005C11.9325 36.2346 15.0231 35.2977 16.2594 34.7191C16.4475 33.2862 17.0119 32.3218 17.63 31.7707C12.8462 31.2196 7.8475 29.3183 7.8475 20.8866C7.8475 18.4893 8.68063 16.5054 10.0513 14.9623C9.83625 14.4112 9.08375 12.1517 10.2662 9.12069C10.2662 9.12069 12.0669 8.54204 16.1787 11.3802C17.8987 10.8842 19.7263 10.6362 21.5538 10.6362C23.3813 10.6362 25.2088 10.8842 26.9288 11.3802C31.0406 8.51449 32.8413 9.12069 32.8413 9.12069C34.0238 12.1517 33.2713 14.4112 33.0563 14.9623C34.4269 16.5054 35.26 18.4618 35.26 20.8866C35.26 29.3459 30.2344 31.2196 25.4506 31.7707C26.23 32.4596 26.9019 33.7822 26.9019 35.8488C26.9019 38.7972 26.875 41.1669 26.875 41.9109C26.875 42.4895 27.2781 43.1784 28.3531 42.958C36.8456 40.0371 43 31.7707 43 22.0439C43 9.86467 33.3788 6.10352e-05 21.5 6.10352e-05Z" fill="#7E7F80"/>
</svg>
