<svg width="43" height="43" viewBox="0 0 43 43" fill="none" xmlns="http://www.w3.org/2000/svg">
<circle cx="21.5" cy="21.5001" r="21.5" fill="#D9D9D9"/>
<path d="M18.4541 17.9957H22.6646V20.1457C23.2916 19.0707 24.725 17.9957 26.875 17.9957C31.3541 17.9957 31.802 20.5936 31.802 24.3561V32.1498H27.5916V25.0728C27.5916 23.4603 27.6812 21.579 25.4416 21.579C22.575 21.579 22.575 23.2811 22.575 25.0728V32.1498H18.3646L18.4541 17.9957Z" fill="#7E7F80"/>
<path d="M15.677 17.9957H11.4666V32.1498H15.677V17.9957Z" fill="#7E7F80"/>
<path d="M13.5271 15.8273C14.9124 15.8273 16.0354 14.7043 16.0354 13.319C16.0354 11.9336 14.9124 10.8106 13.5271 10.8106C12.1418 10.8106 11.0187 11.9336 11.0187 13.319C11.0187 14.7043 12.1418 15.8273 13.5271 15.8273Z" fill="#7E7F80"/>
<path d="M21.5 6.10352e-05C9.58542 6.10352e-05 0 9.58548 0 21.5001C0 33.4146 9.58542 43.0001 21.5 43.0001C33.4146 43.0001 43 33.4146 43 21.5001C43 9.58548 33.4146 6.10352e-05 21.5 6.10352e-05ZM21.5 38.5209C12.0937 38.5209 4.47917 30.9063 4.47917 21.5001C4.47917 12.0938 12.0937 4.47923 21.5 4.47923C30.9062 4.47923 38.5208 12.0938 38.5208 21.5001C38.5208 30.9063 30.9062 38.5209 21.5 38.5209Z" fill="#7E7F80"/>
</svg>
