<svg width="43" height="43" viewBox="0 0 43 43" fill="none" xmlns="http://www.w3.org/2000/svg">
<circle cx="21.5" cy="21.5001" r="21.5" fill="#D9D9D9"/>
<path d="M21.5 6.10352e-05C9.62589 6.10352e-05 0 9.62809 0 21.5009C0 33.3755 9.62589 43.0001 21.5 43.0001C33.3741 43.0001 43 33.3755 43 21.5009C43 9.62809 33.3732 6.10352e-05 21.5 6.10352e-05ZM27.19 21.411H23.4671C23.4671 27.3605 23.4671 34.6887 23.4671 34.6887H17.9491C17.9491 34.6887 17.9491 27.4356 17.9491 21.411H15.3246V16.7232H17.9491V13.6855C17.9491 11.5114 18.9811 8.11757 23.5186 8.11757L27.6047 8.13329V12.6867C27.6047 12.6867 25.1199 12.6867 24.6379 12.6867C24.1533 12.6867 23.468 12.9285 23.468 13.9623V16.724H27.6745L27.19 21.411Z" fill="#7E7F80"/>
</svg>
