<svg width="189" height="199" viewBox="0 0 189 199" fill="none" xmlns="http://www.w3.org/2000/svg">
<g filter="url(#filter0_d_2_13)">
<path d="M50.6843 25.0963L91.3626 119.594H92.9684L133.647 25.0963H151.042L100.729 137.353H83.6016L33.2891 25.0963H50.6843Z" fill="#FFBA6A"/>
</g>
<g clip-path="url(#clip0_2_13)">
<g filter="url(#filter1_d_2_13)">
<path d="M69.1652 150.625L135.336 71.848L134.615 70.4133L31.9145 76.4964L24.1038 60.9532L146.999 55.5045L154.69 70.8086L76.9758 166.168L69.1652 150.625Z" fill="#FFBA6A"/>
</g>
</g>
<path d="M1.816 183.728H0.256V182H6.52V183.728H5.032L7.384 191.696H7.408L9.472 185.552L8.872 183.728H7.456V182H13.984V183.728H12.208L14.872 191.72H14.896L17.248 183.728H15.328V182H20.68V183.728H19.096L15.952 194H12.664L10.456 187.28L8.2 194H4.936L1.816 183.728ZM31.0021 193.328C30.6341 193.536 30.1541 193.728 29.5621 193.904C29.1941 194.016 28.8101 194.096 28.4101 194.144C28.0261 194.208 27.6341 194.24 27.2341 194.24C26.0181 194.24 24.9301 193.984 23.9701 193.472C23.0101 192.96 22.2581 192.24 21.7141 191.312C21.1701 190.368 20.8981 189.288 20.8981 188.072C20.8981 186.84 21.1701 185.744 21.7141 184.784C22.2741 183.824 23.0341 183.08 23.9941 182.552C24.9541 182.024 26.0421 181.76 27.2581 181.76C28.4901 181.76 29.5781 182.024 30.5221 182.552C31.4661 183.064 32.1941 183.792 32.7061 184.736C33.2341 185.68 33.5061 186.76 33.5221 187.976C33.5221 188.088 33.5221 188.208 33.5221 188.336C33.5221 188.448 33.5141 188.56 33.4981 188.672H24.0661C24.1301 189.504 24.3061 190.232 24.5941 190.856C24.8821 191.464 25.2581 191.928 25.7221 192.248C26.2021 192.568 26.7381 192.728 27.3301 192.728C27.8101 192.728 28.3141 192.592 28.8421 192.32C29.3861 192.032 29.8421 191.696 30.2101 191.312C30.5781 190.912 30.7701 190.544 30.7861 190.208V189.896H32.6341V194.648H31.0021V193.328ZM30.3301 187.328C30.2661 186.464 30.0981 185.728 29.8261 185.12C29.5541 184.512 29.1941 184.056 28.7461 183.752C28.2981 183.448 27.7861 183.296 27.2101 183.296C26.6341 183.296 26.1221 183.456 25.6741 183.776C25.2261 184.096 24.8661 184.56 24.5941 185.168C24.3221 185.776 24.1541 186.496 24.0901 187.328H30.3301ZM43.9973 194.24C43.1173 194.24 42.3413 194.048 41.6693 193.664C40.9973 193.28 40.4613 192.744 40.0613 192.056V194H37.1093V178.928H35.0453V177.2H40.1333V183.896C40.5333 183.208 41.0613 182.68 41.7173 182.312C42.3733 181.944 43.1333 181.76 43.9973 181.76C45.0373 181.76 45.9733 182.024 46.8053 182.552C47.6533 183.08 48.3173 183.824 48.7973 184.784C49.2773 185.728 49.5173 186.8 49.5173 188C49.5173 189.216 49.2773 190.296 48.7973 191.24C48.3173 192.184 47.6613 192.92 46.8293 193.448C45.9973 193.976 45.0533 194.24 43.9973 194.24ZM43.1813 192.392C43.7733 192.392 44.3013 192.224 44.7653 191.888C45.2293 191.552 45.5893 191.056 45.8453 190.4C46.1013 189.728 46.2293 188.928 46.2293 188C46.2293 187.072 46.1013 186.28 45.8453 185.624C45.5893 184.952 45.2293 184.448 44.7653 184.112C44.3013 183.776 43.7733 183.608 43.1813 183.608C42.5733 183.608 42.0293 183.8 41.5493 184.184C41.0693 184.568 40.6853 185.096 40.3973 185.768C40.1253 186.44 39.9893 187.184 39.9893 188C39.9893 188.816 40.1253 189.56 40.3973 190.232C40.6853 190.904 41.0693 191.432 41.5493 191.816C42.0293 192.2 42.5733 192.392 43.1813 192.392ZM62.965 194.24C61.925 194.24 60.981 193.984 60.133 193.472C59.301 192.944 58.645 192.208 58.165 191.264C57.701 190.32 57.469 189.248 57.469 188.048C57.469 186.832 57.709 185.76 58.189 184.832C58.669 183.888 59.325 183.152 60.157 182.624C60.989 182.096 61.925 181.832 62.965 181.832C63.861 181.832 64.629 182.016 65.269 182.384C65.909 182.752 66.429 183.28 66.829 183.968V178.928H64.717V177.2H69.877V192.272H71.893V194H66.973V192.008C66.573 192.712 66.029 193.264 65.341 193.664C64.669 194.048 63.877 194.24 62.965 194.24ZM63.781 192.392C64.389 192.392 64.933 192.2 65.413 191.816C65.909 191.432 66.293 190.904 66.565 190.232C66.837 189.56 66.973 188.816 66.973 188C66.973 187.184 66.837 186.44 66.565 185.768C66.293 185.096 65.909 184.568 65.413 184.184C64.933 183.8 64.389 183.608 63.781 183.608C63.189 183.608 62.661 183.776 62.197 184.112C61.749 184.448 61.389 184.944 61.117 185.6C60.861 186.256 60.733 187.056 60.733 188C60.733 188.928 60.861 189.728 61.117 190.4C61.389 191.056 61.749 191.552 62.197 191.888C62.661 192.224 63.189 192.392 63.781 192.392ZM83.3258 193.328C82.9578 193.536 82.4778 193.728 81.8858 193.904C81.5178 194.016 81.1338 194.096 80.7338 194.144C80.3498 194.208 79.9578 194.24 79.5578 194.24C78.3418 194.24 77.2538 193.984 76.2938 193.472C75.3338 192.96 74.5818 192.24 74.0378 191.312C73.4938 190.368 73.2218 189.288 73.2218 188.072C73.2218 186.84 73.4938 185.744 74.0378 184.784C74.5978 183.824 75.3578 183.08 76.3178 182.552C77.2778 182.024 78.3658 181.76 79.5818 181.76C80.8138 181.76 81.9018 182.024 82.8458 182.552C83.7898 183.064 84.5178 183.792 85.0298 184.736C85.5578 185.68 85.8298 186.76 85.8458 187.976C85.8458 188.088 85.8458 188.208 85.8458 188.336C85.8458 188.448 85.8378 188.56 85.8218 188.672H76.3898C76.4538 189.504 76.6298 190.232 76.9178 190.856C77.2058 191.464 77.5818 191.928 78.0458 192.248C78.5258 192.568 79.0618 192.728 79.6538 192.728C80.1338 192.728 80.6378 192.592 81.1658 192.32C81.7098 192.032 82.1658 191.696 82.5338 191.312C82.9018 190.912 83.0938 190.544 83.1098 190.208V189.896H84.9578V194.648H83.3258V193.328ZM82.6538 187.328C82.5898 186.464 82.4218 185.728 82.1498 185.12C81.8778 184.512 81.5178 184.056 81.0698 183.752C80.6218 183.448 80.1098 183.296 79.5338 183.296C78.9578 183.296 78.4458 183.456 77.9978 183.776C77.5498 184.096 77.1898 184.56 76.9178 185.168C76.6458 185.776 76.4778 186.496 76.4138 187.328H82.6538ZM87.6091 183.728H85.9531V182H93.1531V183.728H91.0171L94.2091 191.48H94.2331L97.4251 183.728H95.0491V182H101.001V183.728H99.3451L95.0491 194H91.9531L87.6091 183.728ZM111.035 193.328C110.667 193.536 110.187 193.728 109.595 193.904C109.227 194.016 108.843 194.096 108.443 194.144C108.059 194.208 107.667 194.24 107.267 194.24C106.051 194.24 104.963 193.984 104.003 193.472C103.043 192.96 102.291 192.24 101.747 191.312C101.203 190.368 100.931 189.288 100.931 188.072C100.931 186.84 101.203 185.744 101.747 184.784C102.307 183.824 103.067 183.08 104.027 182.552C104.987 182.024 106.075 181.76 107.291 181.76C108.523 181.76 109.611 182.024 110.555 182.552C111.499 183.064 112.227 183.792 112.739 184.736C113.267 185.68 113.539 186.76 113.555 187.976C113.555 188.088 113.555 188.208 113.555 188.336C113.555 188.448 113.547 188.56 113.531 188.672H104.099C104.163 189.504 104.339 190.232 104.627 190.856C104.915 191.464 105.291 191.928 105.755 192.248C106.235 192.568 106.771 192.728 107.363 192.728C107.843 192.728 108.347 192.592 108.875 192.32C109.419 192.032 109.875 191.696 110.243 191.312C110.611 190.912 110.803 190.544 110.819 190.208V189.896H112.667V194.648H111.035V193.328ZM110.363 187.328C110.299 186.464 110.131 185.728 109.859 185.12C109.587 184.512 109.227 184.056 108.779 183.752C108.331 183.448 107.819 183.296 107.243 183.296C106.667 183.296 106.155 183.456 105.707 183.776C105.259 184.096 104.899 184.56 104.627 185.168C104.355 185.776 104.187 186.496 104.123 187.328H110.363ZM115.126 192.272H117.286V178.928H115.078V177.2H120.31V192.272H122.566V194H115.126V192.272ZM130.53 194.24C129.25 194.24 128.106 193.976 127.098 193.448C126.09 192.904 125.298 192.16 124.722 191.216C124.162 190.272 123.882 189.2 123.882 188C123.882 186.8 124.162 185.728 124.722 184.784C125.298 183.84 126.09 183.104 127.098 182.576C128.122 182.032 129.266 181.76 130.53 181.76C131.826 181.76 132.978 182.032 133.986 182.576C134.994 183.104 135.778 183.84 136.338 184.784C136.914 185.728 137.202 186.8 137.202 188C137.202 189.2 136.914 190.272 136.338 191.216C135.778 192.16 134.986 192.904 133.962 193.448C132.954 193.976 131.81 194.24 130.53 194.24ZM130.53 192.536C131.218 192.536 131.818 192.36 132.33 192.008C132.842 191.64 133.234 191.12 133.506 190.448C133.778 189.76 133.914 188.944 133.914 188C133.914 187.056 133.778 186.248 133.506 185.576C133.234 184.888 132.842 184.368 132.33 184.016C131.818 183.648 131.218 183.464 130.53 183.464C129.858 183.464 129.266 183.648 128.754 184.016C128.242 184.368 127.842 184.888 127.554 185.576C127.282 186.248 127.146 187.056 127.146 188C127.146 188.944 127.282 189.76 127.554 190.448C127.842 191.12 128.242 191.64 128.754 192.008C129.266 192.36 129.858 192.536 130.53 192.536ZM138.544 197.072H140.56V183.728H138.544V182H143.464V183.992C143.848 183.272 144.376 182.72 145.048 182.336C145.736 181.952 146.528 181.76 147.424 181.76C148.48 181.76 149.424 182.024 150.256 182.552C151.104 183.08 151.768 183.816 152.248 184.76C152.728 185.704 152.968 186.784 152.968 188C152.968 189.2 152.728 190.28 152.248 191.24C151.768 192.184 151.104 192.92 150.256 193.448C149.424 193.976 148.48 194.24 147.424 194.24C146.576 194.24 145.824 194.056 145.168 193.688C144.512 193.304 143.992 192.776 143.608 192.104V197.144H146.8V198.8H138.544V197.072ZM146.656 192.392C147.232 192.392 147.752 192.224 148.216 191.888C148.68 191.552 149.04 191.056 149.296 190.4C149.552 189.728 149.68 188.928 149.68 188C149.68 187.072 149.552 186.28 149.296 185.624C149.04 184.952 148.68 184.448 148.216 184.112C147.752 183.776 147.232 183.608 146.656 183.608C146.048 183.608 145.496 183.8 145 184.184C144.52 184.568 144.136 185.096 143.848 185.768C143.576 186.44 143.44 187.184 143.44 188C143.44 188.816 143.576 189.56 143.848 190.232C144.136 190.904 144.52 191.432 145 191.816C145.496 192.2 146.048 192.392 146.656 192.392ZM164.905 193.328C164.537 193.536 164.057 193.728 163.465 193.904C163.097 194.016 162.713 194.096 162.313 194.144C161.929 194.208 161.537 194.24 161.137 194.24C159.921 194.24 158.833 193.984 157.873 193.472C156.913 192.96 156.161 192.24 155.617 191.312C155.073 190.368 154.801 189.288 154.801 188.072C154.801 186.84 155.073 185.744 155.617 184.784C156.177 183.824 156.937 183.08 157.897 182.552C158.857 182.024 159.945 181.76 161.161 181.76C162.393 181.76 163.481 182.024 164.425 182.552C165.369 183.064 166.097 183.792 166.609 184.736C167.137 185.68 167.409 186.76 167.425 187.976C167.425 188.088 167.425 188.208 167.425 188.336C167.425 188.448 167.417 188.56 167.401 188.672H157.969C158.033 189.504 158.209 190.232 158.497 190.856C158.785 191.464 159.161 191.928 159.625 192.248C160.105 192.568 160.641 192.728 161.233 192.728C161.713 192.728 162.217 192.592 162.745 192.32C163.289 192.032 163.745 191.696 164.113 191.312C164.481 190.912 164.673 190.544 164.689 190.208V189.896H166.537V194.648H164.905V193.328ZM164.233 187.328C164.169 186.464 164.001 185.728 163.729 185.12C163.457 184.512 163.097 184.056 162.649 183.752C162.201 183.448 161.689 183.296 161.113 183.296C160.537 183.296 160.025 183.456 159.577 183.776C159.129 184.096 158.769 184.56 158.497 185.168C158.225 185.776 158.057 186.496 157.993 187.328H164.233ZM168.948 192.272H170.964V183.728H168.948V182H173.868V183.896C174.14 183.24 174.532 182.728 175.044 182.36C175.572 181.992 176.156 181.808 176.796 181.808C177.26 181.808 177.708 181.904 178.14 182.096C178.268 182.16 178.388 182.232 178.5 182.312C178.612 182.376 178.724 182.448 178.836 182.528V181.016H180.468V187.208H178.86V186.392C178.86 185.976 178.724 185.568 178.452 185.168C178.196 184.752 177.86 184.416 177.444 184.16C177.044 183.888 176.644 183.752 176.244 183.752C175.844 183.752 175.476 183.904 175.14 184.208C174.804 184.512 174.532 184.936 174.324 185.48C174.116 186.024 174.012 186.648 174.012 187.352V192.272H176.916V194H168.948V192.272Z" fill="white" fill-opacity="0.6"/>
<defs>
<filter id="filter0_d_2_13" x="29.2891" y="25.0963" width="125.753" height="120.257" filterUnits="userSpaceOnUse" color-interpolation-filters="sRGB">
<feFlood flood-opacity="0" result="BackgroundImageFix"/>
<feColorMatrix in="SourceAlpha" type="matrix" values="0 0 0 0 0 0 0 0 0 0 0 0 0 0 0 0 0 0 127 0" result="hardAlpha"/>
<feOffset dy="4"/>
<feGaussianBlur stdDeviation="2"/>
<feComposite in2="hardAlpha" operator="out"/>
<feColorMatrix type="matrix" values="0 0 0 0 0 0 0 0 0 0 0 0 0 0 0 0 0 0 0.25 0"/>
<feBlend mode="normal" in2="BackgroundImageFix" result="effect1_dropShadow_2_13"/>
<feBlend mode="normal" in="SourceGraphic" in2="effect1_dropShadow_2_13" result="shape"/>
</filter>
<filter id="filter1_d_2_13" x="20.1038" y="55.5045" width="138.586" height="118.664" filterUnits="userSpaceOnUse" color-interpolation-filters="sRGB">
<feFlood flood-opacity="0" result="BackgroundImageFix"/>
<feColorMatrix in="SourceAlpha" type="matrix" values="0 0 0 0 0 0 0 0 0 0 0 0 0 0 0 0 0 0 127 0" result="hardAlpha"/>
<feOffset dy="4"/>
<feGaussianBlur stdDeviation="2"/>
<feComposite in2="hardAlpha" operator="out"/>
<feColorMatrix type="matrix" values="0 0 0 0 0 0 0 0 0 0 0 0 0 0 0 0 0 0 0.25 0"/>
<feBlend mode="normal" in2="BackgroundImageFix" result="effect1_dropShadow_2_13"/>
<feBlend mode="normal" in="SourceGraphic" in2="effect1_dropShadow_2_13" result="shape"/>
</filter>
<clipPath id="clip0_2_13">
<rect width="131" height="123" fill="white" transform="translate(78.8201 172.28) rotate(-116.68)"/>
</clipPath>
</defs>
</svg>
